<?xml version="1.0" encoding="utf-8"?>
<!-- Generator: Adobe Illustrator 24.1.0, SVG Export Plug-In . SVG Version: 6.00 Build 0)  -->
<svg version="1.1" id="Layer_1" xmlns="http://www.w3.org/2000/svg" xmlns:xlink="http://www.w3.org/1999/xlink" x="0px" y="0px"
	 viewBox="0 0 36 36" style="enable-background:new 0 0 115.2 36;" xml:space="preserve">
<style type="text/css">
	.st0{fill:#231F20;}
	.st1{fill:#001E61;}
	.st2{fill:#E43D30;}
	.st3{fill:#FFFFFF;}
</style>

<g>
	<g>
		<path class="st1" d="M18.2,36c-9.9,0-18-8.1-18-18c0-9.9,8.1-18,18-18c9.9,0,18,8.1,18,18C36.2,27.9,28.2,36,18.2,36z"/>
	</g>
	<rect x="3.3" y="3.1" class="st2" width="29.8" height="29.8"/>
	<rect x="5.5" y="5.3" class="st1" width="25.4" height="25.4"/>
	<path class="st3" d="M23.4,28.8v-9.9l-5.3,9.8L13,18.9v9.9H7.5V7.2H13l5.2,9.7l5.2-9.7h5.5v21.5H23.4z"/>
</g>
<path class="st0" d="M115,13.1c0,1.2-0.9,2.1-2.2,2.1c-1.3,0-2.2-0.9-2.2-2.1s1-2.1,2.2-2.1C114,11,115,11.9,115,13.1z M111.1,13.1
	c0,0.9,0.7,1.7,1.7,1.7c0.9,0,1.6-0.8,1.6-1.7s-0.7-1.8-1.7-1.8C111.8,11.4,111.1,12.1,111.1,13.1z M112.5,14.2H112v-2.1
	c0.2,0,0.5-0.1,0.8-0.1c0.4,0,0.6,0.1,0.8,0.2c0.1,0.1,0.3,0.3,0.3,0.4c0,0.3-0.2,0.4-0.4,0.5l0,0c0.2,0.1,0.3,0.3,0.4,0.5
	c0.1,0.3,0.1,0.4,0.2,0.5h-0.5c-0.1-0.1-0.1-0.3-0.2-0.5c-0.1-0.3-0.2-0.3-0.4-0.3h-0.3L112.5,14.2L112.5,14.2z M112.5,13h0.3
	c0.3,0,0.5-0.1,0.5-0.3c0-0.2-0.1-0.3-0.4-0.3c-0.1,0-0.3,0-0.3,0L112.5,13L112.5,13z"/>
</svg>
